<svg width="59" height="52" viewBox="0 0 59 52" fill="none" xmlns="http://www.w3.org/2000/svg">
<g id="design 1" clip-path="url(#clip0_12_2)">
<path id="XMLID_345_" d="M20.6025 21.7999L6.4425 9.57994C5.8525 9.05994 5.8525 8.27994 6.4425 7.75994L13.5225 1.51994C14.1125 0.999944 14.9975 0.999944 15.5875 1.51994L29.4525 13.7399" stroke="#5CDB95" stroke-miterlimit="10"/>
<path id="XMLID_342_" d="M38.5976 21.8L52.7576 34.28C53.3476 34.8 53.3476 35.58 52.7576 36.1L45.6776 42.34C45.0876 42.86 44.2026 42.86 43.6126 42.34L29.7476 29.86" stroke="#5CDB95" stroke-miterlimit="10"/>
<path id="XMLID_380_" d="M38.7965 38.1089L41.7168 40.6828L47.7662 35.3513L44.8459 32.7774L38.7965 38.1089Z" fill="#5CDB95"/>
<path id="XMLID_378_" d="M32.7277 32.6473L35.6479 35.2212L38.777 32.4635L35.8567 29.8896L32.7277 32.6473Z" fill="#5CDB95"/>
<path id="XMLID_375_" d="M14.6625 16.5404L17.5828 19.1143L23.6322 13.7828L20.7119 11.2089L14.6625 16.5404Z" fill="#5CDB95"/>
<path id="XMLID_374_" d="M8.59166 11.451L11.512 14.0249L14.641 11.2672L11.7207 8.69332L8.59166 11.451Z" fill="#5CDB95"/>
<path id="XMLID_341_" d="M41.5476 3.34L43.3176 1.78C44.4976 0.74 46.2676 0.74 47.4476 1.78L52.4626 6.2C53.6426 7.24 53.6426 8.8 52.4626 9.84L50.6926 11.4" stroke="#5CDB95" stroke-miterlimit="10" stroke-linecap="round" stroke-linejoin="round"/>
<path id="XMLID_371_" d="M48.4151 13.275L39.4526 5.37561L11.2916 30.1946L20.2541 38.094L48.4151 13.275Z" stroke="#5CDB95" stroke-miterlimit="10" stroke-linecap="round" stroke-linejoin="round"/>
<path id="XMLID_370_" d="M42.7858 8.00002L14 33.3715L16.9204 35.9453L45.7062 10.5738L42.7858 8.00002Z" fill="#5CDB95"/>
<path id="XMLID_369_" d="M6.4425 42.3399L10.8675 30.3799L20.0125 38.4399L6.4425 42.3399Z" stroke="#5CDB95" stroke-miterlimit="10" stroke-linecap="round" stroke-linejoin="round"/>
<path id="XMLID_368_" d="M7.91751 38.44L6.4425 42.34L10.8675 41.04L7.91751 38.44Z" fill="#5CDB95"/>
<path id="XMLID_340_" d="M51.2825 10.88L47.7425 13.74L38.8925 5.94001L42.1375 2.82001" stroke="#5CDB95" stroke-miterlimit="10" stroke-linecap="round" stroke-linejoin="round"/>
<path id="DESIGN" d="M16.8972 52H18.4267C18.4757 52 18.5667 51.9988 18.6997 51.9965C18.8327 51.9942 18.9576 51.9848 19.0742 51.9685C19.4569 51.9148 19.7766 51.7737 20.0332 51.545C20.2899 51.314 20.4824 51.02 20.6107 50.663C20.7391 50.3037 20.8032 49.9093 20.8032 49.48C20.8032 49.0507 20.7391 48.6575 20.6107 48.3005C20.4824 47.9435 20.2899 47.6495 20.0332 47.4185C19.7766 47.1852 19.4569 47.0428 19.0742 46.9915C18.9529 46.9752 18.8281 46.9658 18.6997 46.9635C18.5714 46.9612 18.4804 46.96 18.4267 46.96H16.8972V52ZM17.4292 51.5065V47.4535H18.4267C18.5177 47.4535 18.6192 47.457 18.7312 47.464C18.8456 47.4687 18.9424 47.4792 19.0217 47.4955C19.3134 47.5468 19.5502 47.6658 19.7322 47.8525C19.9142 48.0368 20.0472 48.269 20.1312 48.549C20.2152 48.829 20.2572 49.1393 20.2572 49.48C20.2572 49.8137 20.2152 50.1217 20.1312 50.404C20.0496 50.6863 19.9177 50.9208 19.7357 51.1075C19.5537 51.2942 19.3157 51.4132 19.0217 51.4645C18.9424 51.4808 18.8467 51.4925 18.7347 51.4995C18.6251 51.5042 18.5224 51.5065 18.4267 51.5065H17.4292ZM21.6004 52H24.7504V51.5065H22.1149V49.69H24.3304V49.1965H22.1149V47.4535H24.7504V46.96H21.6004V52ZM27.158 52.105C27.5103 52.105 27.8241 52.0467 28.0995 51.93C28.3771 51.8133 28.5965 51.6453 28.7575 51.426C28.9185 51.2043 28.999 50.9372 28.999 50.6245C28.999 50.3865 28.9546 50.1893 28.866 50.033C28.7796 49.8743 28.67 49.7472 28.537 49.6515C28.4063 49.5535 28.2721 49.4788 28.1345 49.4275C27.9968 49.3738 27.8766 49.333 27.774 49.305L26.787 49.0145C26.6563 48.9772 26.521 48.9293 26.381 48.871C26.2433 48.8127 26.1266 48.7322 26.031 48.6295C25.9376 48.5268 25.891 48.3903 25.891 48.22C25.891 48.052 25.9423 47.9027 26.045 47.772C26.1476 47.639 26.2876 47.5352 26.465 47.4605C26.6423 47.3835 26.843 47.3462 27.067 47.3485C27.4193 47.3508 27.7215 47.45 27.9735 47.646C28.2278 47.8397 28.3806 48.0998 28.432 48.4265L28.971 48.3285C28.8893 47.8758 28.6781 47.5188 28.3375 47.2575C27.9968 46.9938 27.5745 46.8608 27.0705 46.8585C26.7391 46.8562 26.444 46.9122 26.185 47.0265C25.926 47.1385 25.7218 47.2983 25.5725 47.506C25.4231 47.7113 25.3485 47.9563 25.3485 48.241C25.3485 48.5793 25.45 48.843 25.653 49.032C25.8583 49.2187 26.115 49.3575 26.423 49.4485L27.7005 49.83C27.8171 49.865 27.935 49.9128 28.054 49.9735C28.173 50.0342 28.2721 50.1182 28.3515 50.2255C28.4331 50.3328 28.474 50.4728 28.474 50.6455C28.474 50.8438 28.418 51.0153 28.306 51.16C28.194 51.3047 28.04 51.4167 27.844 51.496C27.6503 51.573 27.4286 51.6115 27.179 51.6115C26.8033 51.6115 26.4801 51.5193 26.2095 51.335C25.9388 51.1483 25.7615 50.8917 25.6775 50.565L25.1525 50.6525C25.2108 50.9512 25.331 51.209 25.513 51.426C25.695 51.643 25.926 51.811 26.206 51.93C26.4883 52.0467 26.8056 52.105 27.158 52.105ZM29.7914 52H30.3059V46.96H29.7914V52ZM33.3747 52.105C33.8694 52.105 34.2801 52.0023 34.6067 51.797C34.9357 51.5893 35.1819 51.3058 35.3452 50.9465C35.5086 50.5872 35.5902 50.1812 35.5902 49.7285C35.5902 49.7028 35.5891 49.6608 35.5867 49.6025C35.5844 49.5418 35.5809 49.4847 35.5762 49.431H33.8752V49.872H35.0372C35.0116 50.4087 34.8669 50.8333 34.6032 51.146C34.3396 51.4587 33.9371 51.6138 33.3957 51.6115C33.0014 51.6092 32.6712 51.5182 32.4052 51.3385C32.1416 51.1588 31.9444 50.9092 31.8137 50.5895C31.6831 50.2698 31.6189 49.9 31.6212 49.48C31.6259 49.06 31.6936 48.6902 31.8242 48.3705C31.9549 48.0508 32.1509 47.8012 32.4122 47.6215C32.6736 47.4418 33.0014 47.3532 33.3957 47.3555C33.7667 47.3555 34.0771 47.4477 34.3267 47.632C34.5787 47.8163 34.7607 48.0625 34.8727 48.3705L35.3907 48.2445C35.2577 47.8222 35.0221 47.4862 34.6837 47.2365C34.3477 46.9845 33.9114 46.8585 33.3747 46.8585C32.8941 46.8585 32.4822 46.967 32.1392 47.184C31.7962 47.401 31.5326 47.7055 31.3482 48.0975C31.1662 48.4895 31.0752 48.9503 31.0752 49.48C31.0752 50.012 31.1674 50.4752 31.3517 50.8695C31.5384 51.2615 31.8032 51.566 32.1462 51.783C32.4892 51.9977 32.8987 52.105 33.3747 52.105ZM36.2908 52H36.8088V47.8665L39.5843 52H40.1023V46.96H39.5843V51.09L36.8088 46.96H36.2908V52Z" fill="#5CDB95"/>
</g>
<defs>
<clipPath id="clip0_12_2">
<rect width="59" height="52" fill="white"/>
</clipPath>
</defs>
</svg>
