<svg width="59" height="52" viewBox="0 0 59 52" fill="none" xmlns="http://www.w3.org/2000/svg">
<g id="Frame 2" clip-path="url(#clip0_12_29)">
<path id="Vector 1" d="M26 41L2 21.5L26 2" stroke="#5CDB95"/>
<path id="Vector 2" d="M34 41L58 21.5L34 2" stroke="#5CDB95"/>
<path id="DEVELOP" d="M16.1697 52H17.6992C17.7482 52 17.8392 51.9988 17.9722 51.9965C18.1052 51.9942 18.23 51.9848 18.3467 51.9685C18.7294 51.9148 19.049 51.7737 19.3057 51.545C19.5624 51.314 19.7549 51.02 19.8832 50.663C20.0115 50.3037 20.0757 49.9093 20.0757 49.48C20.0757 49.0507 20.0115 48.6575 19.8832 48.3005C19.7549 47.9435 19.5624 47.6495 19.3057 47.4185C19.049 47.1852 18.7294 47.0428 18.3467 46.9915C18.2254 46.9752 18.1005 46.9658 17.9722 46.9635C17.8439 46.9612 17.7529 46.96 17.6992 46.96H16.1697V52ZM16.7017 51.5065V47.4535H17.6992C17.7902 47.4535 17.8917 47.457 18.0037 47.464C18.118 47.4687 18.2149 47.4792 18.2942 47.4955C18.5859 47.5468 18.8227 47.6658 19.0047 47.8525C19.1867 48.0368 19.3197 48.269 19.4037 48.549C19.4877 48.829 19.5297 49.1393 19.5297 49.48C19.5297 49.8137 19.4877 50.1217 19.4037 50.404C19.322 50.6863 19.1902 50.9208 19.0082 51.1075C18.8262 51.2942 18.5882 51.4132 18.2942 51.4645C18.2149 51.4808 18.1192 51.4925 18.0072 51.4995C17.8975 51.5042 17.7949 51.5065 17.6992 51.5065H16.7017ZM20.8728 52H24.0228V51.5065H21.3873V49.69H23.6028V49.1965H21.3873V47.4535H24.0228V46.96H20.8728V52ZM26.146 52H26.8285L28.5645 46.96H28.029L26.482 51.4155L24.9455 46.96H24.41L26.146 52ZM29.0896 52H32.2396V51.5065H29.6041V49.69H31.8196V49.1965H29.6041V47.4535H32.2396V46.96H29.0896V52ZM33.1518 52H36.0603V51.5065H33.6663V46.96H33.1518V52ZM38.5608 52.105C39.0648 52.105 39.4894 51.9942 39.8348 51.7725C40.1801 51.5508 40.4414 51.2428 40.6188 50.8485C40.7961 50.4518 40.8848 49.9957 40.8848 49.48C40.8848 48.962 40.7961 48.5058 40.6188 48.1115C40.4414 47.7172 40.1801 47.4092 39.8348 47.1875C39.4894 46.9658 39.0648 46.855 38.5608 46.855C38.0591 46.855 37.6356 46.9658 37.2903 47.1875C36.9449 47.4092 36.6836 47.7172 36.5063 48.1115C36.3289 48.5058 36.2403 48.962 36.2403 49.48C36.2403 49.9957 36.3289 50.4518 36.5063 50.8485C36.6836 51.2428 36.9449 51.5508 37.2903 51.7725C37.6356 51.9942 38.0591 52.105 38.5608 52.105ZM38.5608 51.6115C38.1664 51.6092 37.8363 51.5182 37.5703 51.3385C37.3066 51.1588 37.1094 50.9092 36.9788 50.5895C36.8481 50.2698 36.7839 49.9 36.7863 49.48C36.7909 49.06 36.8586 48.6902 36.9893 48.3705C37.1199 48.0485 37.3159 47.7977 37.5773 47.618C37.8386 47.436 38.1664 47.3462 38.5608 47.3485C38.9551 47.3508 39.2841 47.4418 39.5478 47.6215C39.8114 47.8012 40.0086 48.0508 40.1393 48.3705C40.2723 48.6902 40.3388 49.06 40.3388 49.48C40.3388 49.9 40.2723 50.271 40.1393 50.593C40.0086 50.9127 39.8114 51.1623 39.5478 51.342C39.2841 51.5217 38.9551 51.6115 38.5608 51.6115ZM41.5857 52H42.1002V50.0855H43.5317C43.5784 50.0855 43.6332 50.0832 43.6962 50.0785C43.7592 50.0738 43.8222 50.0668 43.8852 50.0575C44.2772 49.9968 44.5794 49.8242 44.7917 49.5395C45.0064 49.2548 45.1137 48.9165 45.1137 48.5245C45.1137 48.1302 45.0075 47.7907 44.7952 47.506C44.5829 47.2213 44.2795 47.0487 43.8852 46.988C43.8222 46.9763 43.7592 46.9693 43.6962 46.967C43.6355 46.9623 43.5807 46.96 43.5317 46.96H41.5857V52ZM42.1002 49.5955V47.4535H43.5177C43.5597 47.4535 43.6087 47.4558 43.6647 47.4605C43.723 47.4628 43.7779 47.4698 43.8292 47.4815C44.0882 47.5375 44.2784 47.667 44.3997 47.87C44.5234 48.0707 44.5852 48.2888 44.5852 48.5245C44.5852 48.7578 44.5234 48.976 44.3997 49.179C44.2784 49.382 44.0882 49.5103 43.8292 49.564C43.7779 49.5757 43.723 49.5838 43.6647 49.5885C43.6087 49.5932 43.5597 49.5955 43.5177 49.5955H42.1002Z" fill="#5CDB95"/>
</g>
<defs>
<clipPath id="clip0_12_29">
<rect width="59" height="52" fill="white"/>
</clipPath>
</defs>
</svg>
