<svg width="123" height="123" viewBox="0 0 123 123" fill="none" xmlns="http://www.w3.org/2000/svg">
<g id="insta-logo 1" clip-path="url(#clip0_32_7)">
<path id="Vector" d="M61.45 0C44.76 0 42.66 0.07 36.11 0.37C31.0141 0.473574 25.9726 1.44062 21.2 3.23C17.098 4.76361 13.3836 7.18072 10.32 10.31C7.19353 13.3799 4.77104 17.0921 3.22 21.19C1.42992 25.9655 0.466145 31.0109 0.37 36.11C0.08 42.66 0 44.75 0 61.44C0 78.13 0.07 80.21 0.37 86.77C0.473574 91.8659 1.44062 96.9074 3.23 101.68C4.77117 105.778 7.18727 109.491 10.31 112.56C13.3772 115.69 17.0902 118.113 21.19 119.66C25.9668 121.445 31.0114 122.409 36.11 122.51C42.66 122.81 44.75 122.88 61.44 122.88C78.13 122.88 80.21 122.81 86.77 122.51C91.8686 122.409 96.9132 121.445 101.69 119.66C105.776 118.075 109.487 115.656 112.587 112.557C115.686 109.457 118.105 105.746 119.69 101.66C121.47 96.8847 122.437 91.8449 122.55 86.75C122.84 80.2 122.92 78.11 122.92 61.42C122.92 44.73 122.84 42.64 122.55 36.09C122.437 30.9919 121.47 25.9487 119.69 21.17C118.146 17.0706 115.727 13.3576 112.6 10.29C109.538 7.15843 105.823 4.74097 101.72 3.21C96.9301 1.42301 91.8715 0.462686 86.76 0.37C80.2 0.07 78.12 0 61.43 0H61.45ZM55.93 11.07H61.45C77.85 11.07 79.79 11.13 86.27 11.43C90.1661 11.4743 94.0257 12.1881 97.68 13.54C100.348 14.5256 102.761 16.0976 104.74 18.14C106.778 20.1228 108.35 22.5345 109.34 25.2C110.692 28.8543 111.406 32.7139 111.45 36.61C111.75 43.08 111.81 45.03 111.81 61.43C111.81 77.83 111.75 79.77 111.45 86.25C111.407 90.143 110.693 93.9994 109.34 97.65C108.316 100.298 106.75 102.702 104.742 104.708C102.734 106.715 100.329 108.279 97.68 109.3C94.0282 110.662 90.1674 111.38 86.27 111.42C79.8 111.72 77.85 111.78 61.45 111.78C45.05 111.78 43.1 111.72 36.62 111.42C32.7233 111.372 28.8637 110.655 25.21 109.3C22.5394 108.319 20.1233 106.75 18.14 104.71C16.1012 102.73 14.5327 100.317 13.55 97.65C12.1947 93.9963 11.4775 90.1367 11.43 86.24C11.14 79.76 11.08 77.82 11.08 61.41C11.08 45 11.14 43.07 11.43 36.59C11.4715 32.6927 12.1888 28.8321 13.55 25.18C14.5327 22.513 16.1012 20.1004 18.14 18.12C20.1249 16.0795 22.5403 14.5079 25.21 13.52C28.8649 12.1689 32.7237 11.4519 36.62 11.4C42.29 11.15 44.48 11.07 55.93 11.06V11.07ZM94.24 21.27C92.7799 21.27 91.3527 21.7031 90.1389 22.5145C88.925 23.3258 87.9791 24.479 87.4208 25.8281C86.8625 27.1772 86.717 28.6616 87.0025 30.0934C87.2881 31.5253 87.992 32.8403 89.0251 33.872C90.0582 34.9037 91.3741 35.6058 92.8064 35.8894C94.2386 36.173 95.7228 36.0255 97.0711 35.4654C98.4195 34.9052 99.5714 33.9578 100.381 32.7428C101.191 31.5279 101.622 30.1 101.62 28.64C101.62 27.6713 101.429 26.7121 101.058 25.8173C100.687 24.9225 100.143 24.1096 99.4578 23.4251C98.7724 22.7406 97.9588 22.1979 97.0634 21.8281C96.1681 21.4583 95.2087 21.2687 94.24 21.27ZM61.45 29.89C55.21 29.89 49.1101 31.7404 43.9218 35.2071C38.7334 38.6739 34.6895 43.6013 32.3016 49.3663C29.9137 55.1313 29.2889 61.475 30.5062 67.5951C31.7236 73.7152 34.7284 79.3369 39.1408 83.7492C43.5531 88.1616 49.1748 91.1664 55.2949 92.3838C61.415 93.6011 67.7586 92.9763 73.5237 90.5884C79.2887 88.2005 84.2161 84.1566 87.6829 78.9682C91.1496 73.7799 93 67.68 93 61.44C92.9973 53.0732 89.6725 45.0499 83.7563 39.1337C77.8401 33.2175 69.8168 29.8927 61.45 29.89V29.89ZM61.45 40.96C65.5018 40.9541 69.4644 42.1501 72.8362 44.3969C76.2081 46.6437 78.8377 49.8401 80.3924 53.5818C81.9471 57.3235 82.357 61.4423 81.5701 65.417C80.7833 69.3917 78.8351 73.0437 75.9722 75.9109C73.1092 78.7781 69.46 80.7316 65.4865 81.5243C61.5129 82.3169 57.3936 81.9131 53.6496 80.3639C49.9056 78.8147 46.7053 76.1898 44.4536 72.8212C42.2019 69.4526 41 65.4918 41 61.44C41.0106 56.0205 43.1688 50.8261 47.002 46.9949C50.8351 43.1636 56.0305 41.0079 61.45 41V40.96Z" fill="#EDF5E1"/>
</g>
<defs>
<clipPath id="clip0_32_7">
<rect width="122.88" height="122.88" fill="white"/>
</clipPath>
</defs>
</svg>
