<svg width="2081" height="1498" viewBox="0 0 2081 1498" fill="none" xmlns="http://www.w3.org/2000/svg">
<g id="Frame 4" clip-path="url(#clip0_22_7)">
<path id="Vector 2" d="M-53 89.0001C585 -201 383.5 852 -123.5 294" stroke="#05386B" stroke-width="3"/>
<path id="Vector 3" d="M2112.08 89.5138C1474.07 -200.19 1675.57 851.734 2182.58 294.304" stroke="#05386B" stroke-width="3"/>
<path id="Vector 3_2" d="M-12.7552 525.463C94.3569 507.825 214.913 492.857 214.913 654.357C214.913 815.856 60.1735 664.546 60.1735 815.856C60.1735 967.166 210.706 878.011 214.913 1009.45C219.12 1140.89 69.5238 1046.64 64.8487 1165.86C60.1735 1285.07 214.913 1265.71 214.913 1374.74C214.913 1483.76 72.6772 1548.36 64.8487 1515" stroke="#05386B" stroke-width="3"/>
<path id="Vector 4" d="M2100.59 525.267C1986.03 507.959 1857.09 493.271 1857.09 651.752C1857.09 810.233 2022.59 661.75 2022.59 810.233C2022.59 958.715 1861.59 871.225 1857.09 1000.21C1852.59 1129.19 2012.59 1036.71 2017.59 1153.69C2022.59 1270.68 1857.09 1251.68 1857.09 1358.67C1857.09 1465.65 2009.22 1554.73 2017.59 1522" stroke="#05386B" stroke-width="3"/>
</g>
<defs>
<clipPath id="clip0_22_7">
<rect width="2081" height="1498" fill="white"/>
</clipPath>
</defs>
</svg>
