<svg width="64" height="52" viewBox="0 0 64 52" fill="none" xmlns="http://www.w3.org/2000/svg">
<path id="Vector" fill-rule="evenodd" clip-rule="evenodd" d="M64.0012 6.15132C61.6484 7.20372 59.1137 7.90292 56.4669 8.21472C59.1787 6.59072 61.2527 4.01702 62.2425 0.953222C59.7078 2.45202 56.8909 3.55172 53.9062 4.13982C51.5062 1.58982 48.0975 0.00482178 44.3214 0.00482178C37.0706 0.00482178 31.2004 5.87842 31.2004 13.1246C31.2004 14.1474 31.3138 15.1478 31.5359 16.1128C20.6259 15.56 10.9538 10.3371 4.4789 2.39062C3.31505 4.39545 2.70219 6.67246 2.7025 8.99062C2.7025 13.5403 5.0127 17.5644 8.5372 19.9113C6.3864 19.8475 4.3632 19.2475 2.5867 18.2754V18.4396C2.5867 24.8023 7.1092 30.1114 13.1187 31.3114C12.0179 31.6102 10.8557 31.7756 9.6581 31.7756C8.8101 31.7756 7.9927 31.6882 7.1801 31.5406C8.8584 36.7516 13.7034 40.5501 19.4413 40.6611C14.9424 44.1856 9.292 46.2844 3.1323 46.2844C2.0693 46.2844 1.0335 46.2194 -0.00109863 46.0954C5.8218 49.8313 12.7195 51.9951 20.1299 51.9951C44.2719 51.9951 57.4851 31.9882 57.4851 14.6411C57.4851 14.0647 57.4721 13.5061 57.4485 12.9415C60.0127 11.1072 62.2355 8.79222 63.9954 6.15712L64.0013 6.15122L64.0012 6.15132Z" fill="#EDF5E1"/>
</svg>
